{
  "accessors": [
    {
      "bufferView": 2,
      "componentType": 5126,
      "count": 4250,
      "max": [
        384.74359130859375,
        96.92240142822266,
        1560.1773681640625
      ],
      "min": [
        -966.5800170898438,
        -145.17340087890625,
        133.6591033935547
      ],
      "type": "VEC3"
    },
    {
      "bufferView": 2,
      "byteOffset": 51000,
      "componentType": 5126,
      "count": 4250,
      "max": [
        0.9978625178337097,
        0.9993897676467896,
        0.999998927116394
      ],
      "min": [
        -0.998798668384552,
        -0.9998940229415894,
        -0.9998799562454224
      ],
      "type": "VEC3"
    },
    {
      "bufferView": 1,
      "componentType": 5126,
      "count": 4250,
      "max": [
        0.9952999949455261,
        0.98580002784729
      ],
      "min": [
        0.01209999993443489,
        0.0020000000949949026
      ],
      "type": "VEC2"
    },
    {
      "bufferView": 0,
      "componentType": 5125,
      "count": 21480,
      "type": "SCALAR"
    },
    {
      "bufferView": 2,
      "byteOffset": 102000,
      "componentType": 5126,
      "count": 4250,
      "max": [
        384.74359130859375,
        96.92240142822266,
        -133.6591033935547
      ],
      "min": [
        -966.5800170898438,
        -145.17340087890625,
        -1560.1773681640625
      ],
      "type": "VEC3"
    },
    {
      "bufferView": 2,
      "byteOffset": 153000,
      "componentType": 5126,
      "count": 4250,
      "max": [
        0.9978625178337097,
        0.9993897676467896,
        0.9998799562454224
      ],
      "min": [
        -0.998798668384552,
        -0.9998940229415894,
        -0.999998927116394
      ],
      "type": "VEC3"
    },
    {
      "bufferView": 1,
      "byteOffset": 34000,
      "componentType": 5126,
      "count": 4250,
      "max": [
        0.9952999949455261,
        0.98580002784729
      ],
      "min": [
        0.01209999993443489,
        0.0020000000949949026
      ],
      "type": "VEC2"
    },
    {
      "bufferView": 0,
      "byteOffset": 85920,
      "componentType": 5125,
      "count": 21480,
      "type": "SCALAR"
    },
    {
      "bufferView": 2,
      "byteOffset": 204000,
      "componentType": 5126,
      "count": 11681,
      "max": [
        1079.5263671875,
        124.32849884033203,
        160.8737030029297
      ],
      "min": [
        -1654.287109375,
        -207.95089721679688,
        -160.8737030029297
      ],
      "type": "VEC3"
    },
    {
      "bufferView": 2,
      "byteOffset": 344172,
      "componentType": 5126,
      "count": 11681,
      "max": [
        1.0,
        1.0,
        1.0
      ],
      "min": [
        -1.0,
        -1.0,
        -1.0
      ],
      "type": "VEC3"
    },
    {
      "bufferView": 1,
      "byteOffset": 68000,
      "componentType": 5126,
      "count": 11681,
      "max": [
        0.9409000277519226,
        0.992900013923645
      ],
      "min": [
        0.0015999999595806003,
        0.0024999999441206455
      ],
      "type": "VEC2"
    },
    {
      "bufferView": 0,
      "byteOffset": 171840,
      "componentType": 5125,
      "count": 61410,
      "type": "SCALAR"
    },
    {
      "bufferView": 2,
      "byteOffset": 484344,
      "componentType": 5126,
      "count": 4781,
      "max": [
        1018.7197875976563,
        -59.168800354003906,
        141.53900146484375
      ],
      "min": [
        -1037.5067138671875,
        -219.2196044921875,
        -141.53900146484375
      ],
      "type": "VEC3"
    },
    {
      "bufferView": 2,
      "byteOffset": 541716,
      "componentType": 5126,
      "count": 4781,
      "max": [
        1.0,
        1.0,
        1.0
      ],
      "min": [
        -1.0,
        -1.0,
        -1.0
      ],
      "type": "VEC3"
    },
    {
      "bufferView": 1,
      "byteOffset": 161448,
      "componentType": 5126,
      "count": 4781,
      "max": [
        0.9876999855041504,
        0.24619999527931213
      ],
      "min": [
        0.8716999888420105,
        0.010099999606609344
      ],
      "type": "VEC2"
    },
    {
      "bufferView": 0,
      "byteOffset": 417480,
      "componentType": 5125,
      "count": 15252,
      "type": "SCALAR"
    },
    {
      "bufferView": 2,
      "byteOffset": 599088,
      "componentType": 5126,
      "count": 6043,
      "max": [
        -998.8651123046875,
        -75.36150360107422,
        597.2744750976563
      ],
      "min": [
        -1764.874267578125,
        -639.600830078125,
        -597.2744750976563
      ],
      "type": "VEC3"
    },
    {
      "bufferView": 2,
      "byteOffset": 671604,
      "componentType": 5126,
      "count": 6043,
      "max": [
        0.9999898672103882,
        1.0,
        0.9999994039535522
      ],
      "min": [
        -1.0,
        -0.9999971389770508,
        -0.9999994039535522
      ],
      "type": "VEC3"
    },
    {
      "bufferView": 1,
      "byteOffset": 199696,
      "componentType": 5126,
      "count": 6043,
      "max": [
        0.8101000189781189,
        0.989799976348877
      ],
      "min": [
        0.007000000216066837,
        0.004999999888241291
      ],
      "type": "VEC2"
    },
    {
      "bufferView": 0,
      "byteOffset": 478488,
      "componentType": 5125,
      "count": 32196,
      "type": "SCALAR"
    },
    {
      "bufferView": 2,
      "byteOffset": 744120,
      "componentType": 5126,
      "count": 31878,
      "max": [
        211.07150268554688,
        168.58389282226563,
        1499.826416015625
      ],
      "min": [
        -883.0313720703125,
        -97.33460235595703,
        173.23939514160156
      ],
      "type": "VEC3"
    },
    {
      "bufferView": 2,
      "byteOffset": 1126656,
      "componentType": 5126,
      "count": 31878,
      "max": [
        1.0,
        1.0,
        1.0
      ],
      "min": [
        -1.0,
        -1.0,
        -1.0
      ],
      "type": "VEC3"
    },
    {
      "bufferView": 1,
      "byteOffset": 248040,
      "componentType": 5126,
      "count": 31878,
      "max": [
        0.9980999827384949,
        0.9961000084877014
      ],
      "min": [
        0.002400000113993883,
        0.0007999999797903001
      ],
      "type": "VEC2"
    },
    {
      "bufferView": 0,
      "byteOffset": 607272,
      "componentType": 5125,
      "count": 163902,
      "type": "SCALAR"
    },
    {
      "bufferView": 2,
      "byteOffset": 1509192,
      "componentType": 5126,
      "count": 1252,
      "max": [
        -95.59249877929688,
        28.377599716186523,
        1486.3287353515625
      ],
      "min": [
        -722.4572143554688,
        -90.97090148925781,
        437.2726135253906
      ],
      "type": "VEC3"
    },
    {
      "bufferView": 2,
      "byteOffset": 1524216,
      "componentType": 5126,
      "count": 1252,
      "max": [
        0.917726993560791,
        0.9967485666275024,
        0.9986490607261658
      ],
      "min": [
        -0.9450168013572693,
        -0.9921396374702454,
        -0.9989998936653137
      ],
      "type": "VEC3"
    },
    {
      "bufferView": 1,
      "byteOffset": 503064,
      "componentType": 5126,
      "count": 1252,
      "max": [
        0.9987999796867371,
        0.9976000189781189
      ],
      "min": [
        0.002400000113993883,
        0.09839999675750732
      ],
      "type": "VEC2"
    },
    {
      "bufferView": 0,
      "byteOffset": 1262880,
      "componentType": 5125,
      "count": 3132,
      "type": "SCALAR"
    },
    {
      "bufferView": 2,
      "byteOffset": 1539240,
      "componentType": 5126,
      "count": 31878,
      "max": [
        211.07150268554688,
        168.58389282226563,
        -173.23939514160156
      ],
      "min": [
        -883.0313720703125,
        -97.33460235595703,
        -1499.826416015625
      ],
      "type": "VEC3"
    },
    {
      "bufferView": 2,
      "byteOffset": 1921776,
      "componentType": 5126,
      "count": 31878,
      "max": [
        1.0,
        1.0,
        1.0
      ],
      "min": [
        -1.0,
        -1.0,
        -1.0
      ],
      "type": "VEC3"
    },
    {
      "bufferView": 1,
      "byteOffset": 513080,
      "componentType": 5126,
      "count": 31878,
      "max": [
        0.9980999827384949,
        0.9961000084877014
      ],
      "min": [
        0.002400000113993883,
        0.0007999999797903001
      ],
      "type": "VEC2"
    },
    {
      "bufferView": 0,
      "byteOffset": 1275408,
      "componentType": 5125,
      "count": 163902,
      "type": "SCALAR"
    },
    {
      "bufferView": 2,
      "byteOffset": 2304312,
      "componentType": 5126,
      "count": 1252,
      "max": [
        -95.59249877929688,
        28.377599716186523,
        -437.2726135253906
      ],
      "min": [
        -722.4572143554688,
        -90.97090148925781,
        -1486.3287353515625
      ],
      "type": "VEC3"
    },
    {
      "bufferView": 2,
      "byteOffset": 2319336,
      "componentType": 5126,
      "count": 1252,
      "max": [
        0.917726993560791,
        0.9967485666275024,
        0.9989998936653137
      ],
      "min": [
        -0.9450168013572693,
        -0.9921396374702454,
        -0.9986490607261658
      ],
      "type": "VEC3"
    },
    {
      "bufferView": 1,
      "byteOffset": 768104,
      "componentType": 5126,
      "count": 1252,
      "max": [
        0.9987999796867371,
        0.9976000189781189
      ],
      "min": [
        0.002400000113993883,
        0.09839999675750732
      ],
      "type": "VEC2"
    },
    {
      "bufferView": 0,
      "byteOffset": 1931016,
      "componentType": 5125,
      "count": 3132,
      "type": "SCALAR"
    }
  ],
  "asset": {
    "extras": {
      "author": "mamont nikita (https://sketchfab.com/mamontnikita62)",
      "license": "CC-BY-4.0 (http://creativecommons.org/licenses/by/4.0/)",
      "source": "https://sketchfab.com/3d-models/plane-a340-d3ad0996a8564a94a24ee4b3528b554b",
      "title": "plane a340"
    },
    "generator": "Sketchfab-15.31.0",
    "version": "2.0"
  },
  "bufferViews": [
    {
      "buffer": 0,
      "byteLength": 1943544,
      "name": "floatBufferViews",
      "target": 34963
    },
    {
      "buffer": 0,
      "byteLength": 778120,
      "byteOffset": 1943544,
      "byteStride": 8,
      "name": "floatBufferViews",
      "target": 34962
    },
    {
      "buffer": 0,
      "byteLength": 2334360,
      "byteOffset": 2721664,
      "byteStride": 12,
      "name": "floatBufferViews",
      "target": 34962
    }
  ],
  "buffers": [
    {
      "byteLength": 5056024,
      "uri": "scene_plane.bin"
    }
  ],
  "images": [
    {
      "uri": "textures/11803_Airplane_body_baseColor.jpeg"
    },
    {
      "uri": "textures/11803_Airplane_tail_baseColor.jpeg"
    },
    {
      "uri": "textures/11803_Airplane_wing_L_baseColor.jpeg"
    },
    {
      "uri": "textures/11803_Airplane_wing_R_baseColor.jpeg"
    },
    {
      "uri": "textures/11803_Airplane_wing_details_L_baseColor.jpeg"
    },
    {
      "uri": "textures/11803_Airplane_wing_details_R_baseColor.jpeg"
    }
  ],
  "materials": [
    {
      "doubleSided": true,
      "emissiveTexture": {
        "index": 0
      },
      "name": "11803_Airplane_body",
      "pbrMetallicRoughness": {
        "baseColorTexture": {
          "index": 0
        },
        "metallicFactor": 0.0,
        "roughnessFactor": 0.0
      }
    },
    {
      "doubleSided": true,
      "emissiveTexture": {
        "index": 1
      },
      "name": "11803_Airplane_tail",
      "pbrMetallicRoughness": {
        "baseColorTexture": {
          "index": 1
        },
        "metallicFactor": 0.0,
        "roughnessFactor": 0.0
      }
    },
    {
      "doubleSided": true,
      "emissiveTexture": {
        "index": 2
      },
      "name": "11803_Airplane_wing_L",
      "pbrMetallicRoughness": {
        "baseColorTexture": {
          "index": 2
        },
        "metallicFactor": 0.0,
        "roughnessFactor": 0.0
      }
    },
    {
      "doubleSided": true,
      "emissiveTexture": {
        "index": 3
      },
      "name": "11803_Airplane_wing_R",
      "pbrMetallicRoughness": {
        "baseColorTexture": {
          "index": 3
        },
        "metallicFactor": 0.0,
        "roughnessFactor": 0.0
      }
    },
    {
      "doubleSided": true,
      "emissiveTexture": {
        "index": 4
      },
      "name": "11803_Airplane_wing_details_L",
      "pbrMetallicRoughness": {
        "baseColorTexture": {
          "index": 4
        },
        "metallicFactor": 0.0,
        "roughnessFactor": 0.0
      }
    },
    {
      "doubleSided": true,
      "emissiveTexture": {
        "index": 5
      },
      "name": "11803_Airplane_wing_details_R",
      "pbrMetallicRoughness": {
        "baseColorTexture": {
          "index": 5
        },
        "metallicFactor": 0.0,
        "roughnessFactor": 0.0
      }
    }
  ],
  "meshes": [
    {
      "name": "Object_0",
      "primitives": [
        {
          "attributes": {
            "NORMAL": 1,
            "POSITION": 0,
            "TEXCOORD_0": 2
          },
          "indices": 3,
          "material": 2,
          "mode": 4
        }
      ]
    },
    {
      "name": "Object_1",
      "primitives": [
        {
          "attributes": {
            "NORMAL": 5,
            "POSITION": 4,
            "TEXCOORD_0": 6
          },
          "indices": 7,
          "material": 3,
          "mode": 4
        }
      ]
    },
    {
      "name": "Object_2",
      "primitives": [
        {
          "attributes": {
            "NORMAL": 9,
            "POSITION": 8,
            "TEXCOORD_0": 10
          },
          "indices": 11,
          "material": 0,
          "mode": 4
        }
      ]
    },
    {
      "name": "Object_3",
      "primitives": [
        {
          "attributes": {
            "NORMAL": 13,
            "POSITION": 12,
            "TEXCOORD_0": 14
          },
          "indices": 15,
          "material": 0,
          "mode": 4
        }
      ]
    },
    {
      "name": "Object_4",
      "primitives": [
        {
          "attributes": {
            "NORMAL": 17,
            "POSITION": 16,
            "TEXCOORD_0": 18
          },
          "indices": 19,
          "material": 1,
          "mode": 4
        }
      ]
    },
    {
      "name": "Object_5",
      "primitives": [
        {
          "attributes": {
            "NORMAL": 21,
            "POSITION": 20,
            "TEXCOORD_0": 22
          },
          "indices": 23,
          "material": 4,
          "mode": 4
        }
      ]
    },
    {
      "name": "Object_6",
      "primitives": [
        {
          "attributes": {
            "NORMAL": 25,
            "POSITION": 24,
            "TEXCOORD_0": 26
          },
          "indices": 27,
          "material": 4,
          "mode": 4
        }
      ]
    },
    {
      "name": "Object_7",
      "primitives": [
        {
          "attributes": {
            "NORMAL": 29,
            "POSITION": 28,
            "TEXCOORD_0": 30
          },
          "indices": 31,
          "material": 5,
          "mode": 4
        }
      ]
    },
    {
      "name": "Object_8",
      "primitives": [
        {
          "attributes": {
            "NORMAL": 33,
            "POSITION": 32,
            "TEXCOORD_0": 34
          },
          "indices": 35,
          "material": 5,
          "mode": 4
        }
      ]
    }
  ],
  "nodes": [
    {
      "children": [
        1
      ],
      "matrix": [
        1.0,
        0.0,
        0.0,
        0.0,
        0.0,
        -1.0,
        -4.440892098500626e-16,
        0.0,
        0.0,
        4.440892098500626e-16,
        -1.0,
        0.0,
        0.0,
        0.0,
        0.0,
        1.0
      ],
      "name": "Sketchfab_model"
    },
    {
      "children": [
        2,
        3,
        4,
        5,
        6,
        7,
        8,
        9,
        10
      ],
      "name": "11803_Airplane_v1_l1.obj.cleaner.materialmerger.gles"
    },
    {
      "mesh": 0,
      "name": "Object_2"
    },
    {
      "mesh": 1,
      "name": "Object_3"
    },
    {
      "mesh": 2,
      "name": "Object_4"
    },
    {
      "mesh": 3,
      "name": "Object_5"
    },
    {
      "mesh": 4,
      "name": "Object_6"
    },
    {
      "mesh": 5,
      "name": "Object_7"
    },
    {
      "mesh": 6,
      "name": "Object_8"
    },
    {
      "mesh": 7,
      "name": "Object_9"
    },
    {
      "mesh": 8,
      "name": "Object_10"
    }
  ],
  "samplers": [
    {
      "magFilter": 9729,
      "minFilter": 9987,
      "wrapS": 10497,
      "wrapT": 10497
    }
  ],
  "scene": 0,
  "scenes": [
    {
      "name": "Sketchfab_Scene",
      "nodes": [
        0
      ]
    }
  ],
  "textures": [
    {
      "sampler": 0,
      "source": 0
    },
    {
      "sampler": 0,
      "source": 1
    },
    {
      "sampler": 0,
      "source": 2
    },
    {
      "sampler": 0,
      "source": 3
    },
    {
      "sampler": 0,
      "source": 4
    },
    {
      "sampler": 0,
      "source": 5
    }
  ]
}
